<svg id="visual" viewBox="0 0 900 600" width="900" height="600" xmlns="http://www.w3.org/2000/svg" xmlns:xlink="http://www.w3.org/1999/xlink" version="1.1"><path d="M0 139L113 139L113 91L225 91L225 97L338 97L338 67L450 67L450 85L563 85L563 73L675 73L675 127L788 127L788 61L900 61L900 85L900 0L900 0L788 0L788 0L675 0L675 0L563 0L563 0L450 0L450 0L338 0L338 0L225 0L225 0L113 0L113 0L0 0Z" fill="#121125"></path><path d="M0 235L113 235L113 265L225 265L225 277L338 277L338 157L450 157L450 193L563 193L563 199L675 199L675 241L788 241L788 199L900 199L900 235L900 83L900 59L788 59L788 125L675 125L675 71L563 71L563 83L450 83L450 65L338 65L338 95L225 95L225 89L113 89L113 137L0 137Z" fill="#151425"></path><path d="M0 499L113 499L113 511L225 511L225 385L338 385L338 475L450 475L450 403L563 403L563 499L675 499L675 499L788 499L788 313L900 313L900 499L900 233L900 197L788 197L788 239L675 239L675 197L563 197L563 191L450 191L450 155L338 155L338 275L225 275L225 263L113 263L113 233L0 233Z" fill="#191825"></path><path d="M0 601L113 601L113 601L225 601L225 601L338 601L338 601L450 601L450 601L563 601L563 601L675 601L675 601L788 601L788 601L900 601L900 601L900 497L900 311L788 311L788 497L675 497L675 497L563 497L563 401L450 401L450 473L338 473L338 383L225 383L225 509L113 509L113 497L0 497Z" fill="#1c1b26"></path></svg>